<?xml version="1.0" standalone="no"?><!DOCTYPE svg PUBLIC "-//W3C//DTD SVG 1.1//EN" "http://www.w3.org/Graphics/SVG/1.1/DTD/svg11.dtd"><svg t="1779090682591" class="icon" viewBox="0 0 1024 1024" version="1.1" xmlns="http://www.w3.org/2000/svg" p-id="13189" xmlns:xlink="http://www.w3.org/1999/xlink" width="200" height="200"><path d="M471.363368 922.920421V325.578105a40.636632 40.636632 0 1 1 81.273264 0v597.342316a40.636632 40.636632 0 0 1-81.273264 0z" p-id="13190"></path><path d="M898.048 197.524211a2.021053 2.021053 0 0 0-2.021053-2.048h-213.315368a130.048 130.048 0 0 0-129.886316 123.580631l-0.134737 6.467369-0.215579 4.122947a40.690526 40.690526 0 0 1-81.084631-4.149895 130.048 130.048 0 0 0-130.021053-130.021052H128.026947a2.021053 2.021053 0 0 0-1.42821 0.592842 2.021053 2.021053 0 0 0-0.592842 1.42821v554.684632a2.048 2.048 0 0 0 2.021052 2.021052h256a168.690526 168.690526 0 0 1 128 58.906948 168.636632 168.636632 0 0 1 128-58.906948h256c0.538947 0 1.077895-0.215579 1.455158-0.592842a2.021053 2.021053 0 0 0 0.565895-1.42821V197.524211z m81.300211 554.657684a83.294316 83.294316 0 0 1-83.321264 83.267368h-256a87.363368 87.363368 0 0 0-87.336421 87.390316l-0.215579 4.149895a40.663579 40.663579 0 0 1-81.084631-4.149895 87.363368 87.363368 0 0 0-87.363369-87.363368h-256a83.294316 83.294316 0 0 1-83.267368-83.267369V197.470316a83.294316 83.294316 0 0 1 83.267368-83.267369h213.342316a211.321263 211.321263 0 0 1 170.657684 86.716632 211.240421 211.240421 0 0 1 170.684632-86.743579h213.315368a83.348211 83.348211 0 0 1 83.321264 83.294316v554.684631z" p-id="13191"></path></svg>