<?xml version="1.0" standalone="no"?><!DOCTYPE svg PUBLIC "-//W3C//DTD SVG 1.1//EN" "http://www.w3.org/Graphics/SVG/1.1/DTD/svg11.dtd"><svg t="1778745524144" class="icon" viewBox="0 0 1024 1024" version="1.1" xmlns="http://www.w3.org/2000/svg" p-id="8835" xmlns:xlink="http://www.w3.org/1999/xlink" width="200" height="200"><path d="M540.017 212.093c-38.593 0-70.01 31.417-70.01 70.01s31.417 70.01 70.01 70.01c38.627 0 70.045-31.417 70.045-70.01s-31.418-70.01-70.045-70.01z m0 104.353c-18.948 0-34.343-15.395-34.343-34.343 0-18.948 15.395-34.343 34.343-34.343 18.948 0 34.378 15.395 34.378 34.343 0 18.948-15.43 34.343-34.378 34.343zM487.84 700.072c38.592 0 70.01-31.417 70.01-70.045 0-38.593-31.417-70.01-70.01-70.01s-70.01 31.417-70.01 70.01c0.001 38.628 31.418 70.045 70.01 70.045z m0-104.388c18.948 0 34.343 15.395 34.343 34.343 0 18.948-15.395 34.378-34.343 34.378-18.948 0-34.343-15.43-34.343-34.378 0-18.947 15.395-34.343 34.343-34.343z" p-id="8836"></path><path d="M907.76 780.531l-52.699-114.21c-5.353-11.573-13.904-22.599-24.001-32.776 21.66-37.297 36.964-78.596 44.627-122.587 0.202-1.117 0.327-2.253 0.518-3.372 1.487-9.012 2.876-18.047 3.699-27.264a372.802 372.802 0 0 0 1.698-31.903c-0.002-0.25-0.041-0.496-0.044-0.747 0-0.29 0.044-0.566 0.044-0.856 0-196.106-152.058-357.026-344.415-371.901-0.69-0.059-1.354-0.209-2.046-0.266-6.79-0.601-15.526-0.956-24.636-1.086-0.771-0.004-1.515-0.115-2.288-0.115-0.335 0-0.66 0.05-0.995 0.05-0.864-0.007-1.652-0.05-2.523-0.05l-11.285 0.174c-2.921 0.159-5.749 0.729-8.645 1.014C289.821 86.837 134.83 248.848 134.83 446.818c0 68.499 18.857 132.54 51.186 187.786-0.899 0.66-1.911 1.091-2.702 1.937-8.743 9.404-15.604 19.436-20.376 29.78l-52.699 114.21c-10.414 22.605-10.066 45.489 1.01 62.835 2.44 3.814 5.516 7.121 8.832 10.19-0.096 0.747-0.438 1.402-0.438 2.175 0 49.181 39.986 89.167 89.167 89.167h606.334c49.181 0 89.167-39.986 89.167-89.167 0-2.708-0.699-5.207-1.776-7.504 1.369-1.654 3.05-3.041 4.215-4.861 11.076-17.346 11.425-40.229 1.01-62.835zM676.275 533.163c-24.451-45.663-64.959-77.289-116.613-91.361a217.459 217.459 0 0 0-54.406-9.509c-16.301-0.766-31.801-3.135-45.594-6.896-41.1-12.713-75.165-39.219-95.61-74.05-26.053-48.624-25.74-112.608 0.418-162.242 26.271-44.684 71.81-73.576 122.424-78.909 6.762-0.427 13.482-1.008 20.346-1.03 1.084 0.007 2.101 0.044 3.172 0.061 7.867 0.052 15.611 0.599 23.343 1.182 173.187 14.807 310.014 162.673 312.138 337.266-0.004 1.239-0.17 2.434-0.185 3.67-0.255 13.876-1.308 27.599-3.226 41.096-0.198 1.461-0.448 2.906-0.666 4.36-16.292 104.703-81.21 195.729-173.621 245.52a219.464 219.464 0 0 0 6.966-12.156 198.107 198.107 0 0 0 27.133-100.034c0-34.377-9.091-68.128-26.019-96.968zM348.798 149.25c-5.573 7.103-10.804 14.548-15.467 22.492-32.427 61.459-32.706 136.763-0.383 197.055 25.287 43.121 66.562 75.339 116.753 90.839 16.858 4.598 35.005 7.384 53.883 8.255 15.43 0.731 30.756 3.413 46.116 8.15 42.528 11.599 75.443 37.164 95.471 74.573 14.246 24.312 21.456 51.062 21.456 79.519 0 28.84-7.698 57.192-22.64 82.688-13.514 25.601-32.427 46.638-54.754 60.849-0.374 0.24-0.592 0.612-0.943 0.873-25.72 6.291-52.444 9.994-80.074 9.994-186.205 0-337.719-151.514-337.719-337.719 0-128.578 72.278-240.542 178.301-297.568zM142.633 795.509l52.699-114.245c2.517-5.444 6.248-10.835 10.606-16.135 67.9 93.745 177.937 155.075 302.279 155.075 124.749 0 235.119-61.718 302.96-155.985 4.709 5.558 8.808 11.263 11.492 17.08l52.699 114.21c5.329 11.494 5.782 21.665 1.324 28.631-4.458 6.966-13.898 10.797-26.576 10.797h-682.23c-12.678 0-22.118-3.831-26.576-10.797-4.459-6.967-4.007-17.137 1.323-28.631z m672.512 113.722H208.811c-24.704 0-45.345-16.912-51.471-39.707 3.485 0.427 6.857 1.08 10.545 1.08h682.23c5.841 0 11.394-0.651 16.697-1.709-5.906 23.119-26.732 40.336-51.667 40.336z" p-id="8837"></path></svg>