<?xml version="1.0" standalone="no"?><!DOCTYPE svg PUBLIC "-//W3C//DTD SVG 1.1//EN" "http://www.w3.org/Graphics/SVG/1.1/DTD/svg11.dtd"><svg t="1778743701368" class="icon" viewBox="0 0 1024 1024" version="1.1" xmlns="http://www.w3.org/2000/svg" p-id="2298" xmlns:xlink="http://www.w3.org/1999/xlink" width="200" height="200"><path d="M502.528 747.776a237.141333 237.141333 0 0 1-74.453333-12.032 235.349333 235.349333 0 0 1-137.429334-118.442667 235.605333 235.605333 0 0 1-13.525333-180.949333A235.392 235.392 0 0 1 395.52 298.88a235.605333 235.605333 0 0 1 180.906667-13.525333 235.392 235.392 0 0 1 137.514666 118.442666c28.586667 56.576 33.28 120.832 13.525334 180.949334a235.349333 235.349333 0 0 1-118.442667 137.472 236.117333 236.117333 0 0 1-106.538667 25.557333z m-61.013333-52.864a194.346667 194.346667 0 0 0 245.162666-123.605333 192.682667 192.682667 0 0 0-11.050666-148.181334 192.853333 192.853333 0 0 0-112.554667-96.981333 192.682667 192.682667 0 0 0-148.181333 11.093333A192.853333 192.853333 0 0 0 317.866667 449.706667a192.682667 192.682667 0 0 0 11.093333 148.224 192.554667 192.554667 0 0 0 112.512 96.938666z" fill="#5B6E8C" p-id="2300"></path><path d="M484.394667 317.141333c22.741333-22.741333 79.104-16.085333 104.448-9.898666 3.754667 3.285333 12.16 9.898667 15.872 9.898666 4.608 0 13.226667 7.253333 23.125333 13.909334 9.898667 6.613333 19.84 17.834667 25.770667 26.453333 5.973333 8.533333 4.650667 7.893333 6.613333 13.866667 2.005333 5.973333 3.968 6.613333 10.581333 19.2 6.613333 12.544 9.941333 15.829333 15.232 27.733333 5.290667 11.904 7.936 11.221333 20.48 33.706667s4.608 11.264 4.608 20.48v24.490666c0 12.544-4.608 7.936-4.608 27.733334 0 19.84 0.64 23.168 0 27.776-0.512 3.712-8.576 27.989333-12.544 39.68-9.258667 18.090667-28.16 54.869333-29.781333 57.514666-1.578667 2.645333-36.352 32.426667-53.546667 46.933334l-61.44 10.581333c4.608-13.653333 15.701333-46.805333 23.125334-70.058667 9.216-29.098667-3.328-74.069333-32.426667-99.2-29.056-25.088-94.506667-50.901333-103.125333-112.384-8.576-61.44 19.2-79.957333 47.616-108.373333z" fill="#5B6E8C" p-id="2301"></path><path d="M513.024 400.042667a25.557333 25.557333 0 1 0 51.114667 0 25.557333 25.557333 0 0 0-51.114667 0z" fill="#93A4BE" p-id="2302"></path><path d="M440.746667 619.52a25.6 25.6 0 1 0 51.2 0 25.6 25.6 0 0 0-51.2 0z" fill="#5B6E8C" p-id="2303"></path><path d="M468.394667 742.186667c-13.44 0-26.965333-2.133333-40.405334-6.570667l13.44-40.789333a86.4 86.4 0 0 0 54.016-164.096 129.578667 129.578667 0 0 1-82.346666-163.242667 128.725333 128.725333 0 0 1 64.512-74.922667 128.170667 128.170667 0 0 1 98.688-7.338666l-13.397334 40.832a85.845333 85.845333 0 0 0-65.962666 4.949333c-20.608 10.410667-35.84 28.117333-43.178667 50.005333a86.4 86.4 0 0 0 54.997333 109.013334c32.768 10.837333 59.392 33.706667 74.965334 64.554666 15.573333 30.805333 18.133333 65.834667 7.253333 98.688a128.853333 128.853333 0 0 1-122.581333 88.917334z" fill="#5B6E8C" p-id="2304"></path><path d="M673.365333 945.066667H331.136A21.12 21.12 0 0 1 315.989333 938.666667l-241.92-241.92a21.333333 21.333333 0 0 1-6.4-15.189334V339.456c0-5.674667 2.304-11.136 6.4-15.104l241.92-242.090667a21.333333 21.333333 0 0 1 15.146667-6.314666h342.144c5.674667 0 11.136 2.261333 15.146667 6.314666l241.92 241.962667a21.290667 21.290667 0 0 1 6.357333 15.146667v342.144a21.12 21.12 0 0 1-6.357333 15.146666L688.512 938.666667a21.333333 21.333333 0 0 1-15.146667 6.314666zM340.053333 902.058667h324.394667l229.418667-229.418667V348.330667l-229.418667-229.290667H340.053333L110.634667 348.288v324.437333l229.418666 229.376z" fill="#5B6E8C" p-id="2305"></path><path d="M426.666667 195.242667c0-11.861333 9.642667-21.461333 21.504-21.461334h98.901333a21.461333 21.461333 0 0 1 0 42.965334h-98.901333a21.461333 21.461333 0 0 1-21.461334-21.504z m0 630.613333c0-11.861333 9.642667-21.504 21.504-21.504h98.901333a21.461333 21.461333 0 0 1 0 42.965333h-98.901333a21.461333 21.461333 0 0 1-21.461334-21.461333z m-265.770667-364.8a21.461333 21.461333 0 1 1 42.965333 0v98.901333a21.461333 21.461333 0 0 1-42.965333 0v-98.901333z m630.613333 0a21.461333 21.461333 0 1 1 42.965334 0v98.901333a21.461333 21.461333 0 0 1-42.965334 0v-98.901333zM224.554667 337.749333a21.461333 21.461333 0 0 1 0-30.336l69.973333-69.973333a21.461333 21.461333 0 0 1 30.336 30.378667l-69.930667 69.973333a21.461333 21.461333 0 0 1-30.378666 0zM670.421333 783.658667a21.461333 21.461333 0 0 1 0-30.378667l69.973334-69.973333a21.504 21.504 0 0 1 30.336 30.421333l-69.930667 69.930667a21.504 21.504 0 0 1-30.378667 0zM224.554667 713.6a21.461333 21.461333 0 1 1 30.378666-30.378667l69.930667 69.973334a21.461333 21.461333 0 0 1-30.378667 30.378666l-69.973333-69.973333zM670.421333 267.733333a21.461333 21.461333 0 1 1 30.378667-30.336l69.973333 69.930667a21.461333 21.461333 0 1 1-30.421333 30.378667l-69.930667-69.973334z" fill="#5B6E8C" p-id="2306"></path></svg>
