<?xml version="1.0" standalone="no"?><!DOCTYPE svg PUBLIC "-//W3C//DTD SVG 1.1//EN" "http://www.w3.org/Graphics/SVG/1.1/DTD/svg11.dtd"><svg t="1778743672139" class="icon" viewBox="0 0 1024 1024" version="1.1" xmlns="http://www.w3.org/2000/svg" p-id="1180" xmlns:xlink="http://www.w3.org/1999/xlink" width="200" height="200"><path d="M537.301333 181.76a23.552 23.552 0 0 0-39.978666 0L409.941333 321.536H234.410667a23.594667 23.594667 0 0 0-20.010667 36.096l86.528 138.368-86.528 138.368a23.594667 23.594667 0 0 0 20.010667 36.096h175.530666l87.381334 139.776a23.594667 23.594667 0 0 0 39.978666 0l87.381334-139.776h175.530666a23.594667 23.594667 0 0 0 19.968-36.096l-86.485333-138.368 86.485333-138.368a23.594667 23.594667 0 0 0-19.968-36.096H624.64L537.301333 181.76z m31.786667 139.776l-51.797333-82.773333-51.754667 82.773333h103.552zM436.053333 368.682667h162.432l79.573334 127.317333-79.573334 127.317333H436.053333l-79.530666-127.317333 79.530666-127.317333z m-55.637333 0H276.949333l51.754667 82.816 51.754667-82.773334z m-51.754667 171.818666l-51.754666 82.773334h103.509333l-51.754667-82.773334z m136.832 129.962667l51.754667 82.773333 51.797333-82.773333H465.493333z m188.586667-47.146667h103.552l-51.754667-82.816-51.797333 82.773334z m51.797333-171.818666l-51.797333-82.773334h103.552l-51.754667 82.773334z" p-id="1181"></path></svg>